# xmcd
#
# Track frame offsets:
#	182
#	16195
#	33727
#	48975
#	64810
#	76312
#	93132
#	112870
#	129190
#
# Disc length: 1923 seconds
#
# Revision: 3
# Processed by: cddbd v1.5.2PL0 Copyright (c) Steve Scherf et al.
# Submitted via: audiograbber 1.83.01
#
DISCID=62078109
DTITLE=Various Artist - Soul Hits Of The 70's
DYEAR=1900
DGENRE=Oldies
TTITLE0=Barry White - Let The Music Play
TTITLE1=Eddie Kendricks - Boogie Down
TTITLE2=Johnny Bristol - Hang On In There Baby
TTITLE3=Kool and The Gang - Ladies Night
TTITLE4=Michael Jackson - Rockin' Robin
TTITLE5=Lou Rawls - A Natural Man
TTITLE6=Jerry Butler - Ain't Understanding Mellow
TTITLE7=James Brown - Get On The Good Foot
TTITLE8=Brighter Side Of Darkness - Love Jones
EXTD=
EXTT0=
EXTT1=
EXTT2=
EXTT3=
EXTT4=
EXTT5=
EXTT6=
EXTT7=
EXTT8=
PLAYORDER=
